<svg xmlns="http://www.w3.org/2000/svg" width="100%" height="100%" fill="none" viewBox="0 0 216 174"><g filter="url(#filter0)"><path stroke="url(#paint0)" d="M76 86.5H74.5C70.634 86.5 67.5 89.634 67.5 93.5V93.5C67.5 97.366 70.634 100.5 74.5 100.5H76M83 86.5H85.5C89.366 86.5 92.5 89.634 92.5 93.5V93.5C92.5 97.366 89.366 100.5 85.5 100.5H83M84 93.5H76"/></g><mask id="path2" fill="#fff"><path d="M-4 70H216V118H-4V70Z"/></mask><path fill="url(#paint1)" fill-opacity=".1" d="M-4 70.75H216V69.25H-4V70.75ZM216 117.25H-4V118.75H216V117.25Z" mask="url(#path2)"/><mask id="path4" fill="#fff"><path d="M56 0H104V220H56V0Z"/></mask><path fill="url(#paint2)" fill-opacity=".1" d="M103.25 0V220H104.75V0H103.25ZM56.75 220V0H55.25V220H56.75Z" mask="url(#path4)"/><defs><filter id="filter0" width="48" height="48" x="56" y="70" color-interpolation-filters="sRGB" filterUnits="userSpaceOnUse"><feFlood flood-opacity="0" result="BackgroundImageFix"/><feBlend in="SourceGraphic" in2="BackgroundImageFix" mode="normal" result="shape"/><feColorMatrix in="SourceAlpha" result="hardAlpha" type="matrix" values="0 0 0 0 0 0 0 0 0 0 0 0 0 0 0 0 0 0 127 0"/><feOffset/><feGaussianBlur stdDeviation="5"/><feComposite in2="hardAlpha" k2="-1" k3="1" operator="arithmetic"/><feColorMatrix type="matrix" values="0 0 0 0 0.121569 0 0 0 0 0.160784 0 0 0 0 0.215686 0 0 0 0.05 0"/><feBlend in2="shape" mode="normal" result="effect1_innerShadow"/></filter><radialGradient id="paint0" cx="0" cy="0" r="1" gradientTransform="translate(68 87) rotate(48.3665) scale(18.0624)" gradientUnits="userSpaceOnUse"><stop stop-color="#1F2937"/><stop offset="1" stop-color="#1F2937" stop-opacity=".5"/></radialGradient><linearGradient id="paint1" x1="-4" x2="216" y1="94" y2="94" gradientUnits="userSpaceOnUse"><stop stop-color="#1F2937" stop-opacity="0"/><stop offset=".202" stop-color="#1F2937"/><stop offset=".532" stop-color="#1F2937"/><stop offset="1" stop-color="#1F2937" stop-opacity="0"/></linearGradient><linearGradient id="paint2" x1="80" x2="80" y1="0" y2="220" gradientUnits="userSpaceOnUse"><stop stop-color="#1F2937" stop-opacity="0"/><stop offset=".28" stop-color="#1F2937"/><stop offset=".53" stop-color="#1F2937"/><stop offset=".825" stop-color="#1F2937" stop-opacity="0"/></linearGradient></defs></svg>